<?xml version="1.0" encoding="UTF-8"?>
<svg xmlns="http://www.w3.org/2000/svg" xmlns:xlink="http://www.w3.org/1999/xlink" version="1.1" viewBox="0 0 447.5 198.7">
  <defs>
    <style>
      .cls-1, .cls-2 {
        fill: none;
      }

      .cls-3 {
        fill: #3724ad;
      }

      .cls-4 {
        clip-path: url(#clippath-1);
      }

      .cls-2 {
        stroke: #3724ad;
        stroke-width: 14px;
      }

      .cls-5 {
        fill: #cc1500;
      }

      .cls-6 {
        clip-path: url(#clippath);
      }
    </style>
    <clipPath id="clippath">
      <rect class="cls-1" x="22.3" width="400" height="112"/>
    </clipPath>
    <clipPath id="clippath-1">
      <rect class="cls-1" x="41.4" y="24.7" width="362.7" height="87.3"/>
    </clipPath>
  </defs>
  <!-- Generator: Adobe Illustrator 28.7.1, SVG Export Plug-In . SVG Version: 1.2.0 Build 142)  -->
  <g>
    <g id="Layer_1">
      <g class="cls-6">
        <path class="cls-5" d="M194.4,31.2l-17.6,16.2c-.6.6-1,1.3-1,2.2l-.2,4.2c0,.6-.3,1.2-.8,1.7l-6.4,5.8c-.2.2-.5.3-.8.3h-4.2c-.5-.1-1,0-1.3.5l-6.3,7.2c-.3.4-.3,1,0,1.3l12.4,10.8c.4.3.9.3,1.3,0l7.8-7.8c.4-.4.6-.9.5-1.5-.2-1.2.6-2.2.6-2.2,1.4-1.6,2.6-2.5,4.3-3.5,9.4-4.6,17.4,3.4,17.4,3.4l46.3,42.5h-72.7L105.6,32.5,34.8,112.4h-12.2l12.2-13.3v-36.3h15.1v19.2l53.7-60.1,90.8,9.3ZM421.5,112.4h-10.3l-58.2-62.6-61.4,62.6h-22.8c.7-1.3-62.5-53.3-60.7-66.2,2.4-16.6,25.5-18.3,25.5-18.3-13-6.4-31.4-2.1-31.4-2.1l19.7-18.5L277,0l38.3,44.6,38-5.7,68.2,73.5ZM307.7,45.1l-30.6-36-39.4,48.6-8.8.4,17.7,17,33.2-27.2,28-2.9Z"/>
      </g>
      <g class="cls-4">
        <path class="cls-3" d="M403.7,112.4h-5.6l-48.9-51.7,3.1-3.4,51.4,55.1ZM350.9,87.9h-10.6v10.6h10.6v-10.6ZM365.1,87.9h-10.6v10.6h10.6v-10.6ZM350.9,101.8h-10.6v10.6h10.6v-10.6ZM365.1,101.8h-10.6v10.6h10.6v-10.6ZM101.1,82.9h-12.8v12.8h12.8v-12.8ZM118.3,82.9h-12.8v12.8h12.8v-12.8ZM101.1,99.6h-12.8v12.8h12.8v-12.8ZM118.3,99.6h-12.8v12.8h12.8v-12.8ZM278.8,26h-5.9v5.9h5.9v-5.9ZM286.7,26h-5.9v5.9h5.9v-5.9ZM278.8,33.8h-5.9v5.9h5.9v-5.9ZM286.7,33.8h-5.9v5.9h5.9v-5.9ZM105.5,40.6l-63.5,71.8h5.3l61.2-68.4-3-3.3Z"/>
      </g>
      <path d="M0,164.4c.1-4.3.3-8.8.4-13.4.1-4.6.2-9.2.2-13.7s0-2.4,0-4c0-1.6,0-3.1,0-4.7,0-1.5,0-2.8,0-3.8h15.3l7.8,30h.8l7.7-30h15.3c0,2.1,0,4.2,0,6.2,0,2.1,0,4.1,0,6.2,0,4.5,0,9.1.1,13.7,0,4.6.2,9.1.4,13.4h-9.2v-8.3c0-3,0-6-.1-9,0-2.1,0-4.5,0-7,0-2.5,0-4.8,0-6.9h-.7l-8.6,31.2h-10.3l-8.6-31.2h-.7v13.9c-.1,3-.2,6-.2,9,0,2.9,0,5.7,0,8.3H0Z"/>
      <path d="M65,164.4v-13.4h-.6c-1.6,0-2.7-.3-3.4-1-.7-.7-1.3-1.9-1.7-3.7l-6.5-21.5h11.5l4.9,19.4h2.6l4.9-19.4h11.5l-6.6,21.5c-.4,1.8-1,3-1.7,3.7-.7.7-1.9,1-3.4,1h-.5v13.4h-10.9Z"/>
      <path d="M142.3,124.9c0,1.5,0,3.3-.1,5.5,0,2.1,0,4.4,0,6.9v14.7c0,2.5,0,4.8,0,7,0,2.2,0,4,.1,5.5h-10.2c0-1.8,0-3.7.1-5.8,0-2.1,0-4.2,0-6.2,0-2,0-3.8,0-5.4h-14.6c0,1.7,0,3.7,0,5.8,0,2.1,0,4.2,0,6.2,0,2,0,3.8,0,5.4h-10.3c0-3.3.1-6.6.2-10,0-3.4,0-6.6,0-9.8s0-6.3,0-9.7c0-3.4,0-6.7-.2-10.1h10.3c0,2.3,0,4.9,0,7.6,0,2.8,0,5.5,0,8.2h14.6c0-2.3,0-4.9,0-7.7,0-2.8,0-5.5-.1-8.1h10.2Z"/>
      <path d="M186.3,164.4h-10.6c-.3-1.5-.6-2.9-1-4.4-.4-1.5-.7-2.9-1.1-4.4h-13.5c-.9,3.5-1.7,6.4-2.4,8.8h-10.4c.8-2.8,1.6-5.9,2.6-9.3,1-3.4,2-7,3-10.6,1-3.6,2-7.1,2.9-10.5.9-3.4,1.7-6.4,2.4-9.1h17.1c.7,2.7,1.5,5.7,2.4,9,.9,3.3,1.9,6.8,2.9,10.4,1,3.6,2,7.1,3,10.5,1,3.4,1.9,6.7,2.7,9.6ZM161.7,150h10.5c-.9-3.2-1.9-6.4-2.8-9.6-.9-3.2-1.7-6.5-2.4-9.8h-.4c-.8,3.3-1.6,6.5-2.5,9.9-.8,3.3-1.6,6.5-2.4,9.5Z"/>
      <path d="M191.5,164.4c0-2,0-4.1,0-6.4,0-2.3,0-4.8,0-7.6,0-2.8,0-5.9,0-9.5s0-5.1,0-7.9c0-2.8,0-5.5-.1-8.1h13.8l11.3,23.4c.5,1.3,1,2.5,1.5,3.7.5,1.2.9,2.3,1.1,3.1h.7c-.1-1.1-.3-2.2-.4-3.3,0-1.2-.1-2.3-.1-3.4,0-1.8,0-3.8,0-6,0-2.2,0-4.3,0-6.5,0-2.2,0-4.2,0-6.1,0-1.9,0-3.5,0-4.9h9.4c-.1,6.5-.2,12.9-.2,19.3s0,13.1.2,20.2h-13.8l-10.5-20.7c-.9-2.1-1.6-3.9-2.1-5.5-.5-1.5-1-2.9-1.4-4.2h-.7c0,.3,0,.8.1,1.5,0,.7.1,1.5.2,2.3,0,.8.1,1.6.1,2.3,0,.7,0,1.2,0,1.5,0,4.3,0,8.3,0,12,0,3.8,0,7.4,0,10.8h-9.3Z"/>
      <path d="M237.1,164.4c0-2,.1-4.1.1-6.4,0-2.3,0-4.6,0-6.9,0-2.3,0-4.5,0-6.4s0-4.2,0-6.6c0-2.4,0-4.7,0-7,0-2.3,0-4.4-.1-6.2h15.2c4.5,0,8.2.7,11.1,2,2.9,1.3,5.1,3.4,6.6,6.3,1.5,2.9,2.2,6.7,2.2,11.4s-1.4,11.5-4.3,14.8c-2.8,3.3-7.3,5-13.5,5h-17.3ZM247.2,157.5h5.4c3.4,0,5.8-1,7.2-3,1.4-2,2.1-5.3,2.1-9.7s-.7-7.9-2.1-10c-1.4-2-3.9-3-7.5-3h-5.1v25.8Z"/>
      <path d="M288,164.4v-13.4h-.6c-1.6,0-2.7-.3-3.4-1-.7-.7-1.3-1.9-1.7-3.7l-6.5-21.5h11.5l4.9,19.4h2.6l4.9-19.4h11.5l-6.6,21.5c-.4,1.8-1,3-1.7,3.7-.7.7-1.9,1-3.4,1h-.5v13.4h-10.9Z"/>
      <path d="M345,165.1c-5.2,0-9.1-1.8-11.9-5.3-2.7-3.5-4.1-8.6-4.1-15.2s1.5-12,4.4-15.3c2.9-3.3,7.5-5,13.8-5s7.8.6,10.2,1.8c2.5,1.2,4.3,3,5.4,5.4,1.2,2.4,1.9,5.5,2.1,9.3l-10.1,1.1c-.1-2-.5-3.8-1.1-5.3-.6-1.5-1.4-2.8-2.5-3.6-1.1-.9-2.5-1.3-4.3-1.3s-2,.1-2.8.4c-.9.3-1.7.7-2.5,1.1-.8,1.3-1.5,2.8-1.9,4.6-.5,1.7-.7,3.9-.7,6.6s.3,4.9,1,7c.7,2.1,1.7,3.7,3,4.9,1.3,1.2,2.9,1.8,4.8,1.8s2,0,2.9-.3c.9-.2,1.7-.5,2.4-.8.8-.4,1.5-1.1,2.1-2,.6-.9,1.1-1.5,1.3-2,0-.7-.1-1.4-.4-2.1-.2-.7-.6-1-1.2-1h-5.7v-3.7h16.9v5.6c0,1.8,0,3.8,0,5.8,0,2,0,4.3,0,6.9h-9.8l.2-7.7h-.6c-.5,2.6-1.7,4.7-3.6,6.1-1.9,1.5-4.3,2.2-7.4,2.2Z"/>
      <path d="M389.1,165.1c-4,0-7.1-.6-9.4-1.9-2.3-1.3-3.9-3.1-4.9-5.6-1-2.5-1.5-5.7-1.5-9.5v-11.5c0-2.1,0-4.2,0-6.1,0-1.9,0-3.8-.1-5.6h10.1c0,.8,0,1.9,0,3.3,0,1.4,0,2.9,0,4.5s0,3.3,0,5c0,1.7,0,3.2,0,4.6v3.5c0,2.4.2,4.5.6,6.3.4,1.8,1.1,3.2,2.1,4.3,1,1,2.5,1.5,4.3,1.5s2.1-.1,3.1-.4c1-.3,1.8-.7,2.4-1.4.3-1,.5-2,.7-2.8.2-.8.3-1.7.4-2.8,0-1.1.1-2.5.1-4.4v-4.9c0-1.9,0-3.9,0-6,0-2.1,0-4,0-5.9,0-1.8,0-3.3,0-4.5h10.1c0,2.3-.1,4.6-.1,6.9,0,2.3,0,4.6,0,7v11.7c0,3.7-.7,6.6-2.1,8.8-1.4,2.1-3.4,3.7-6.1,4.5-2.6.9-5.8,1.3-9.6,1.3Z"/>
      <path d="M424.3,164.4v-13.4h-.6c-1.6,0-2.7-.3-3.4-1-.7-.7-1.3-1.9-1.7-3.7l-6.5-21.5h11.5l4.9,19.4h2.6l4.9-19.4h11.5l-6.6,21.5c-.4,1.8-1,3-1.7,3.7-.7.7-1.9,1-3.4,1h-.5v13.4h-10.9Z"/>
      <path class="cls-5" d="M59.9,184.7l4.2,5.7,4.2-5.6c.2-.2.3-.4.5-.5.2-.1.4-.2.7-.2s.5,0,.8.3c.2.2.4.4.4.8,0,.3,0,.6-.3,1l-5,6.6v4.5c0,.4-.1.8-.4,1-.3.2-.6.4-.9.4s-.7-.1-1-.4c-.3-.3-.4-.6-.4-1v-4.5l-5.1-6.7c-.2-.3-.3-.6-.3-.9,0-.3.2-.5.4-.7.3-.2.5-.3.8-.3.5,0,.9.2,1.2.6Z"/>
      <path class="cls-5" d="M87.4,191.3c0,1.5-.3,2.8-.9,3.9-.6,1.1-1.5,2-2.6,2.6-1.1.6-2.4.9-3.9.9s-2.8-.3-3.9-.9c-1.1-.6-2-1.5-2.6-2.6-.6-1.1-.9-2.4-.9-3.9s.3-2.8.9-3.9c.6-1.1,1.5-2,2.6-2.6,1.1-.6,2.4-.9,3.9-.9s2.8.3,3.9.9c1.1.6,2,1.5,2.6,2.6.6,1.1.9,2.4.9,3.9ZM80.1,196.4c.9,0,1.8-.2,2.5-.6.7-.4,1.3-1,1.6-1.8.4-.8.6-1.7.6-2.7s-.2-1.9-.6-2.7c-.4-.8-.9-1.4-1.6-1.8-.7-.4-1.5-.6-2.5-.6s-1.8.2-2.5.6c-.7.4-1.3,1-1.7,1.8-.4.8-.6,1.7-.6,2.7s.2,1.9.6,2.7c.4.8,1,1.4,1.7,1.8.7.4,1.6.6,2.5.6Z"/>
      <path class="cls-5" d="M101.9,185.3c0-.4.1-.7.4-.9.3-.2.6-.3.9-.3s.7,0,.9.3c.3.2.4.5.4.9v6.9c0,1.3-.3,2.5-.9,3.5-.6,1-1.4,1.8-2.4,2.3-1,.6-2.2.8-3.6.8s-2.6-.3-3.6-.8c-1-.6-1.8-1.3-2.4-2.3-.6-1-.9-2.1-.9-3.5v-6.9c0-.4.1-.7.4-.8.3-.2.6-.3.9-.3s.7,0,.9.3c.3.2.4.5.4.9v6.9c0,1.3.4,2.3,1.1,3.1.8.8,1.8,1.2,3,1.2s2.3-.4,3-1.2c.8-.8,1.2-1.8,1.2-3.1v-6.9Z"/>
      <path class="cls-5" d="M120.5,196.3c.3.4.5.7.5,1.1,0,.3-.1.6-.4.8-.2.2-.5.3-.9.3-.3,0-.6-.1-.9-.4l-4-4.3h-3.4v3.6c0,.4-.1.7-.4.9-.3.2-.6.3-.9.3s-.6,0-.9-.3c-.3-.2-.4-.5-.4-.9v-12.1c0-.4.1-.6.4-.9.3-.2.6-.3.9-.3h5.1c1.4,0,2.5.2,3.4.7.9.4,1.6,1,2,1.8.5.7.7,1.6.7,2.5s-.3,2-.9,2.8c-.6.8-1.4,1.4-2.6,1.7l2.7,2.9ZM111.4,191.5h3.8c1.2,0,2.1-.3,2.6-.8.6-.5.8-1.1.8-1.8,0-.8-.3-1.4-.9-1.9-.6-.5-1.4-.8-2.5-.8h-3.8v5.2Z"/>
      <path class="cls-5" d="M141.7,184.1c.3,0,.6,0,.9.3.3.2.4.5.4.9v12c0,.4-.1.7-.4.9-.3.2-.6.3-.9.3s-.6,0-.9-.3c-.3-.2-.4-.5-.4-.9v-4.7h-6.8v4.7c0,.4-.1.7-.4.9-.3.2-.6.3-.9.3s-.6-.1-.9-.3c-.3-.2-.4-.5-.4-.9v-12c0-.4.1-.7.4-.9.3-.2.6-.3.9-.3s.6,0,.9.3c.3.2.4.5.4.9v5.2h6.8v-5.2c0-.4.1-.7.4-.9.3-.2.6-.3.9-.3Z"/>
      <path class="cls-5" d="M161.1,191.3c0,1.5-.3,2.8-.9,3.9-.6,1.1-1.5,2-2.6,2.6-1.1.6-2.4.9-3.9.9s-2.8-.3-3.9-.9c-1.1-.6-2-1.5-2.6-2.6-.6-1.1-.9-2.4-.9-3.9s.3-2.8.9-3.9c.6-1.1,1.5-2,2.6-2.6,1.1-.6,2.4-.9,3.9-.9s2.8.3,3.9.9c1.1.6,2,1.5,2.6,2.6.6,1.1.9,2.4.9,3.9ZM153.7,196.4c.9,0,1.8-.2,2.5-.6.7-.4,1.3-1,1.6-1.8.4-.8.6-1.7.6-2.7s-.2-1.9-.6-2.7c-.4-.8-.9-1.4-1.6-1.8-.7-.4-1.5-.6-2.5-.6s-1.8.2-2.5.6c-.7.4-1.3,1-1.7,1.8-.4.8-.6,1.7-.6,2.7s.2,1.9.6,2.7c.4.8,1,1.4,1.7,1.8.7.4,1.6.6,2.5.6Z"/>
      <path class="cls-5" d="M175.6,185.3c0-.4.1-.7.4-.9.3-.2.6-.3.9-.3s.7,0,.9.3c.3.2.4.5.4.9v6.9c0,1.3-.3,2.5-.9,3.5-.6,1-1.4,1.8-2.4,2.3-1,.6-2.2.8-3.6.8s-2.6-.3-3.6-.8c-1-.6-1.8-1.3-2.4-2.3-.6-1-.9-2.1-.9-3.5v-6.9c0-.4.1-.7.4-.8.3-.2.6-.3.9-.3s.7,0,.9.3c.3.2.4.5.4.9v6.9c0,1.3.4,2.3,1.1,3.1.8.8,1.8,1.2,3,1.2s2.3-.4,3-1.2c.8-.8,1.2-1.8,1.2-3.1v-6.9Z"/>
      <path class="cls-5" d="M181.3,195.1c-.1-.4,0-.8.3-1,.3-.3.7-.4,1.1-.4s.6,0,.8.2c.2.1.4.4.5.7.2.5.5.8.9,1.1.5.3,1,.5,1.5.6.6,0,1.1.1,1.6.1s.8,0,1.3,0c.5,0,.9-.2,1.3-.3.4-.2.8-.4,1.1-.7.3-.3.4-.7.4-1.1s-.2-.8-.6-1.1c-.4-.2-.9-.4-1.5-.5-.6,0-1.3-.2-1.9-.2-.8,0-1.6-.1-2.3-.3-.8-.1-1.5-.3-2.1-.6-.6-.3-1.2-.7-1.6-1.2-.4-.5-.6-1.2-.6-2.1s.2-1.4.6-2c.4-.6.9-1,1.5-1.4.6-.4,1.3-.6,2.1-.8.8-.2,1.5-.3,2.2-.3s1.6,0,2.5.3c.9.2,1.7.5,2.4,1,.7.5,1.3,1.1,1.6,1.9.1.4,0,.8-.3,1.1-.3.3-.6.4-1,.4s-.5,0-.7-.2c-.2-.1-.4-.3-.5-.5-.2-.5-.5-.8-1-1-.4-.2-.9-.4-1.5-.5-.5,0-1.1-.1-1.5-.1s-.7,0-1.1.1c-.4,0-.8.2-1.2.3-.4.2-.7.4-1,.6-.3.3-.4.6-.4,1s.2.9.6,1.1c.4.2.9.4,1.5.5.6,0,1.3.2,2.1.2.8,0,1.6.2,2.3.3.8,0,1.5.3,2.1.5.6.3,1.1.6,1.5,1.1.4.5.6,1.2.6,2.1s-.2,1.7-.6,2.3c-.4.6-1,1.1-1.7,1.4-.7.3-1.4.6-2.2.7-.8.2-1.5.2-2.2.2s-1.2,0-1.9-.2c-.7-.1-1.4-.3-2-.6-.7-.3-1.2-.7-1.7-1.1-.5-.5-.8-1.1-1-1.8Z"/>
      <path class="cls-5" d="M208.2,196.2c.4,0,.7.1.9.4.2.3.3.5.3.8s-.1.5-.3.8c-.2.2-.5.3-.9.3h-9c-.5,0-.8-.1-1.1-.4-.3-.3-.4-.6-.4-1v-11.8c0-.4.1-.7.4-.9.3-.3.6-.4,1.1-.4h9c.4,0,.7.1.9.3.2.2.3.5.3.8s-.1.5-.3.8c-.2.2-.5.4-.9.4h-7.9v4h7.5c.4,0,.7.1.9.4.2.2.3.5.3.8s0,.5-.3.8c-.2.2-.5.3-.9.3h-7.5v3.8h7.9Z"/>
      <path class="cls-5" d="M213.5,187.5c-.1.3-.3.4-.5.5-.2.1-.4.2-.6.2-.4,0-.7-.2-.9-.5-.3-.3-.3-.7-.2-1.1l.9-2c.1-.3.3-.4.5-.5.2-.1.4-.2.7-.2s.5,0,.8.2c.3.2.4.4.5.6,0,.3,0,.5-.1.9h0s-1,2-1,2Z"/>
      <path class="cls-5" d="M215.3,195.1c-.1-.4,0-.8.3-1,.3-.3.7-.4,1.1-.4s.6,0,.8.2c.2.1.4.4.5.7.2.5.5.8.9,1.1.5.3,1,.5,1.5.6.6,0,1.1.1,1.6.1s.8,0,1.3,0c.5,0,.9-.2,1.3-.3.4-.2.8-.4,1.1-.7.3-.3.4-.7.4-1.1s-.2-.8-.6-1.1c-.4-.2-.9-.4-1.5-.5-.6,0-1.3-.2-1.9-.2-.8,0-1.6-.1-2.3-.3-.8-.1-1.5-.3-2.1-.6-.6-.3-1.2-.7-1.6-1.2-.4-.5-.6-1.2-.6-2.1s.2-1.4.6-2c.4-.6.9-1,1.5-1.4.6-.4,1.3-.6,2.1-.8.8-.2,1.5-.3,2.2-.3s1.6,0,2.5.3c.9.2,1.7.5,2.4,1,.7.5,1.3,1.1,1.6,1.9.1.4,0,.8-.3,1.1-.3.3-.6.4-1,.4s-.5,0-.7-.2c-.2-.1-.4-.3-.5-.5-.2-.5-.5-.8-1-1-.4-.2-.9-.4-1.5-.5-.5,0-1.1-.1-1.5-.1s-.7,0-1.1.1c-.4,0-.8.2-1.2.3-.4.2-.7.4-1,.6-.3.3-.4.6-.4,1s.2.9.6,1.1c.4.2.9.4,1.5.5.6,0,1.3.2,2.1.2.8,0,1.6.2,2.3.3.8,0,1.5.3,2.1.5.6.3,1.1.6,1.5,1.1.4.5.6,1.2.6,2.1s-.2,1.7-.6,2.3c-.4.6-1,1.1-1.7,1.4-.7.3-1.4.6-2.2.7-.8.2-1.5.2-2.2.2s-1.2,0-1.9-.2c-.7-.1-1.4-.3-2-.6-.7-.3-1.2-.7-1.7-1.1-.5-.5-.8-1.1-1-1.8Z"/>
      <path class="cls-5" d="M244.9,184.1c.5,0,1.1,0,1.8.1.7,0,1.3.3,1.8.6.6.3,1,.7,1.4,1.2.4.5.6,1.2.6,2.1s-.1,1-.4,1.5c-.2.5-.6.9-1,1.1.8.3,1.4.8,1.8,1.4.4.6.6,1.3.6,2.1s-.2,1.6-.5,2.2c-.4.6-.8,1-1.4,1.4-.6.3-1.2.5-2,.7-.7.1-1.5.2-2.2.2h-5.5c-.4,0-.7-.1-.9-.4-.3-.2-.4-.5-.4-.9v-12c0-.3.1-.6.4-.9.3-.2.6-.4.9-.4h5.1ZM244.9,186.3h-3.8v3.5h3.8c.8,0,1.5-.1,2-.4.6-.3.9-.7.9-1.4s-.2-.9-.5-1.1c-.3-.2-.7-.4-1.2-.5-.5,0-.9-.1-1.3-.1ZM246,192.1h-4.9v4.2h4.3c.5,0,1.1,0,1.6-.1.5-.1,1-.3,1.3-.6.3-.3.5-.8.5-1.4s-.3-1.2-.8-1.5c-.5-.3-1.2-.5-2-.5Z"/>
      <path class="cls-5" d="M265.1,196.2c.4,0,.7.1.9.4.2.3.3.5.3.8s-.1.5-.3.8c-.2.2-.5.3-.9.3h-9c-.5,0-.8-.1-1.1-.4-.3-.3-.4-.6-.4-1v-11.8c0-.4.1-.7.4-.9.3-.3.6-.4,1.1-.4h9c.4,0,.7.1.9.3.2.2.3.5.3.8s-.1.5-.3.8c-.2.2-.5.4-.9.4h-7.9v4h7.5c.4,0,.7.1.9.4.2.2.3.5.3.8s0,.5-.3.8c-.2.2-.5.3-.9.3h-7.5v3.8h7.9Z"/>
      <path class="cls-5" d="M268.6,195.1c-.1-.4,0-.8.3-1,.3-.3.7-.4,1.1-.4s.6,0,.8.2c.2.1.4.4.5.7.2.5.5.8.9,1.1.5.3,1,.5,1.5.6.6,0,1.1.1,1.6.1s.8,0,1.3,0c.5,0,.9-.2,1.3-.3.4-.2.8-.4,1.1-.7.3-.3.4-.7.4-1.1s-.2-.8-.6-1.1c-.4-.2-.9-.4-1.5-.5-.6,0-1.3-.2-1.9-.2-.8,0-1.6-.1-2.3-.3-.8-.1-1.5-.3-2.1-.6-.6-.3-1.2-.7-1.6-1.2-.4-.5-.6-1.2-.6-2.1s.2-1.4.6-2c.4-.6.9-1,1.5-1.4.6-.4,1.3-.6,2.1-.8.8-.2,1.5-.3,2.2-.3s1.6,0,2.5.3c.9.2,1.7.5,2.4,1,.7.5,1.3,1.1,1.6,1.9.1.4,0,.8-.3,1.1-.3.3-.6.4-1,.4s-.5,0-.7-.2c-.2-.1-.4-.3-.5-.5-.2-.5-.5-.8-1-1-.4-.2-.9-.4-1.5-.5-.5,0-1.1-.1-1.5-.1s-.7,0-1.1.1c-.4,0-.8.2-1.2.3-.4.2-.7.4-1,.6-.3.3-.4.6-.4,1s.2.9.6,1.1c.4.2.9.4,1.5.5.6,0,1.3.2,2.1.2.8,0,1.6.2,2.3.3.8,0,1.5.3,2.1.5.6.3,1.1.6,1.5,1.1.4.5.6,1.2.6,2.1s-.2,1.7-.6,2.3c-.4.6-1,1.1-1.7,1.4-.7.3-1.4.6-2.2.7-.8.2-1.5.2-2.2.2s-1.2,0-1.9-.2c-.7-.1-1.4-.3-2-.6-.7-.3-1.2-.7-1.7-1.1-.5-.5-.8-1.1-1-1.8Z"/>
      <path class="cls-5" d="M295.4,184.1c.4,0,.8.1,1,.4.2.2.4.5.4.8s-.1.5-.4.8c-.2.2-.6.4-1,.4h-4.2v10.9c0,.4-.1.7-.4.9-.3.2-.6.3-.9.3s-.6,0-.9-.3c-.3-.2-.4-.5-.4-.9v-10.9h-4.2c-.4,0-.8-.1-1-.4-.2-.3-.3-.5-.3-.8s.1-.6.3-.8c.2-.3.5-.4,1-.4h11Z"/>
      <path class="cls-5" d="M308.3,186.2v4.5h7.3c.4,0,.7.1.9.4.2.2.3.5.3.8s0,.5-.3.8c-.2.2-.5.3-.9.3h-7.3v4.3c0,.4-.1.7-.4.9-.3.2-.6.3-.9.3s-.6-.1-.9-.3c-.3-.2-.4-.5-.4-.9v-11.9c0-.4.1-.7.4-.9.3-.3.7-.4,1-.4h8.8c.4,0,.7.1.9.4.2.2.3.5.3.8s-.1.5-.3.8c-.2.2-.5.3-.9.3h-7.7Z"/>
      <path class="cls-5" d="M332.1,196.3c.3.4.5.7.5,1.1,0,.3-.1.6-.4.8-.2.2-.5.3-.9.3-.3,0-.6-.1-.9-.4l-4-4.3h-3.4v3.6c0,.4-.1.7-.4.9-.3.2-.6.3-.9.3s-.6,0-.9-.3c-.3-.2-.4-.5-.4-.9v-12.1c0-.4.1-.6.4-.9.3-.2.6-.3.9-.3h5.1c1.4,0,2.5.2,3.4.7.9.4,1.6,1,2,1.8.5.7.7,1.6.7,2.5s-.3,2-.9,2.8c-.6.8-1.4,1.4-2.6,1.7l2.7,2.9ZM322.9,191.5h3.8c1.2,0,2.1-.3,2.6-.8.6-.5.8-1.1.8-1.8,0-.8-.3-1.4-.9-1.9-.6-.5-1.4-.8-2.5-.8h-3.8v5.2Z"/>
      <path class="cls-5" d="M335.5,185.3c0-.4.1-.7.4-.9.3-.2.6-.3.9-.3s.6,0,.9.3c.3.2.4.5.4.9v12.1c0,.4-.1.7-.4.9-.3.2-.6.3-.9.3s-.6,0-.9-.3c-.3-.2-.4-.5-.4-.9v-12.1Z"/>
      <path class="cls-5" d="M351.9,196.2c.4,0,.7.1.9.4.2.3.3.5.3.8s-.1.5-.3.8c-.2.2-.5.3-.9.3h-9c-.5,0-.8-.1-1.1-.4-.3-.3-.4-.6-.4-1v-11.8c0-.4.1-.7.4-.9.3-.3.6-.4,1.1-.4h9c.4,0,.7.1.9.3.2.2.3.5.3.8s-.1.5-.3.8c-.2.2-.5.4-.9.4h-7.9v4h7.5c.4,0,.7.1.9.4.2.2.3.5.3.8s0,.5-.3.8c-.2.2-.5.3-.9.3h-7.5v3.8h7.9Z"/>
      <path class="cls-5" d="M366.1,185.2c0-.4.1-.6.4-.8.3-.2.6-.3,1-.3s.7,0,.9.3c.3.2.4.4.4.8v12c0,.4-.2.8-.5,1-.3.2-.7.3-1,.3s-.5,0-.8-.2c-.2-.1-.4-.3-.6-.5l-6.9-8.9v1.3c0,0,0,7.1,0,7.1,0,.4-.1.7-.4.9-.3.2-.6.3-.9.3s-.7,0-.9-.3c-.3-.2-.4-.5-.4-.9v-11.9c0-.4.1-.8.4-1,.3-.2.6-.4,1-.4s.5,0,.7.2c.2.1.4.3.6.5l7.1,9.2v-1.5c-.1,0-.1-7.3-.1-7.3Z"/>
      <path class="cls-5" d="M378.1,184.1c1.4,0,2.6.3,3.6.9,1,.6,1.8,1.4,2.4,2.5.6,1.1.9,2.3.9,3.8s-.3,2.7-.9,3.8c-.6,1.1-1.4,1.9-2.4,2.5-1,.6-2.2.9-3.6.9h-4.7c-.4,0-.8-.1-1.1-.4-.3-.3-.4-.6-.4-.9v-11.8c0-.4.1-.7.4-.9.3-.3.6-.4,1.1-.4h4.7ZM378.1,196.2c.8,0,1.6-.2,2.2-.6.6-.4,1.1-1,1.5-1.7.4-.7.5-1.6.5-2.6s-.2-1.9-.5-2.6c-.4-.8-.9-1.3-1.5-1.8-.6-.4-1.4-.6-2.2-.6h-3.6v10h3.6Z"/>
      <path class="cls-2" d="M401.4,190.5h40.8"/>
      <path class="cls-2" d="M1.7,190.5h40.8"/>
    </g>
  </g>
</svg>