<svg viewBox="0 0 447.5 198.7" xmlns="http://www.w3.org/2000/svg" xmlns:xlink="http://www.w3.org/1999/xlink"><clipPath id="a"><path d="m22.3 0h400v112h-400z"/></clipPath><clipPath id="b"><path d="m41.4 24.7h362.7v87.3h-362.7z"/></clipPath><g clip-path="url(#a)"><path d="m194.4 31.2-17.6 16.2c-.6.6-1 1.3-1 2.2l-.2 4.2c0 .6-.3 1.2-.8 1.7l-6.4 5.8c-.2.2-.5.3-.8.3h-4.2c-.5-.1-1 0-1.3.5l-6.3 7.2c-.3.4-.3 1 0 1.3l12.4 10.8c.4.3.9.3 1.3 0l7.8-7.8c.4-.4.6-.9.5-1.5-.2-1.2.6-2.2.6-2.2 1.4-1.6 2.6-2.5 4.3-3.5 9.4-4.6 17.4 3.4 17.4 3.4l46.3 42.5h-72.7l-68.1-79.8-70.8 79.9h-12.2l12.2-13.3v-36.3h15.1v19.2l53.7-60.1zm227.1 81.2h-10.3l-58.2-62.6-61.4 62.6h-22.8c.7-1.3-62.5-53.3-60.7-66.2 2.4-16.6 25.5-18.3 25.5-18.3-13-6.4-31.4-2.1-31.4-2.1l19.7-18.5 55.1-7.3 38.3 44.6 38-5.7zm-113.8-67.3-30.6-36-39.4 48.6-8.8.4 17.7 17 33.2-27.2 28-2.9z" fill="#cc1500"/></g><g clip-path="url(#b)"><path d="m403.7 112.4h-5.6l-48.9-51.7 3.1-3.4zm-52.8-24.5h-10.6v10.6h10.6zm14.2 0h-10.6v10.6h10.6zm-14.2 13.9h-10.6v10.6h10.6zm14.2 0h-10.6v10.6h10.6zm-264-18.9h-12.8v12.8h12.8zm17.2 0h-12.8v12.8h12.8zm-17.2 16.7h-12.8v12.8h12.8zm17.2 0h-12.8v12.8h12.8zm160.5-73.6h-5.9v5.9h5.9zm7.9 0h-5.9v5.9h5.9zm-7.9 7.8h-5.9v5.9h5.9zm7.9 0h-5.9v5.9h5.9zm-181.2 6.8-63.5 71.8h5.3l61.2-68.4-3-3.3z" fill="#3724ad"/></g><path d="m0 164.4c.1-4.3.3-8.8.4-13.4s.2-9.2.2-13.7 0-2.4 0-4 0-3.1 0-4.7c0-1.5 0-2.8 0-3.8h15.3l7.8 30h.8l7.7-30h15.3v6.2 6.2c0 4.5 0 9.1.1 13.7 0 4.6.2 9.1.4 13.4h-9.2v-8.3c0-3 0-6-.1-9 0-2.1 0-4.5 0-7s0-4.8 0-6.9h-.7l-8.6 31.2h-10.3l-8.6-31.2h-.7v13.9c-.1 3-.2 6-.2 9v8.3h-9.6z"/><path d="m65 164.4v-13.4h-.6c-1.6 0-2.7-.3-3.4-1s-1.3-1.9-1.7-3.7l-6.5-21.5h11.5l4.9 19.4h2.6l4.9-19.4h11.5l-6.6 21.5c-.4 1.8-1 3-1.7 3.7s-1.9 1-3.4 1h-.5v13.4h-10.9z"/><path d="m142.3 124.9c0 1.5 0 3.3-.1 5.5v6.9 14.7 7c0 2.2 0 4 .1 5.5h-10.2c0-1.8 0-3.7.1-5.8 0-2.1 0-4.2 0-6.2s0-3.8 0-5.4h-14.6v5.8 6.2 5.4h-10.3c0-3.3.1-6.6.2-10 0-3.4 0-6.6 0-9.8s0-6.3 0-9.7 0-6.7-.2-10.1h10.3v7.6 8.2h14.6c0-2.3 0-4.9 0-7.7s0-5.5-.1-8.1z"/><path d="m186.3 164.4h-10.6c-.3-1.5-.6-2.9-1-4.4s-.7-2.9-1.1-4.4h-13.5c-.9 3.5-1.7 6.4-2.4 8.8h-10.4c.8-2.8 1.6-5.9 2.6-9.3s2-7 3-10.6 2-7.1 2.9-10.5 1.7-6.4 2.4-9.1h17.1c.7 2.7 1.5 5.7 2.4 9s1.9 6.8 2.9 10.4 2 7.1 3 10.5 1.9 6.7 2.7 9.6zm-24.6-14.4h10.5c-.9-3.2-1.9-6.4-2.8-9.6s-1.7-6.5-2.4-9.8h-.4c-.8 3.3-1.6 6.5-2.5 9.9-.8 3.3-1.6 6.5-2.4 9.5z"/><path d="m191.5 164.4c0-2 0-4.1 0-6.4s0-4.8 0-7.6 0-5.9 0-9.5 0-5.1 0-7.9 0-5.5-.1-8.1h13.8l11.3 23.4c.5 1.3 1 2.5 1.5 3.7s.9 2.3 1.1 3.1h.7c-.1-1.1-.3-2.2-.4-3.3 0-1.2-.1-2.3-.1-3.4 0-1.8 0-3.8 0-6s0-4.3 0-6.5 0-4.2 0-6.1 0-3.5 0-4.9h9.4c-.1 6.5-.2 12.9-.2 19.3s0 13.1.2 20.2h-13.8l-10.5-20.7c-.9-2.1-1.6-3.9-2.1-5.5-.5-1.5-1-2.9-1.4-4.2h-.7c0 .3 0 .8.1 1.5 0 .7.1 1.5.2 2.3 0 .8.1 1.6.1 2.3v1.5 12 10.8h-9.3z"/><path d="m237.1 164.4c0-2 .1-4.1.1-6.4s0-4.6 0-6.9 0-4.5 0-6.4 0-4.2 0-6.6 0-4.7 0-7 0-4.4-.1-6.2h15.2c4.5 0 8.2.7 11.1 2s5.1 3.4 6.6 6.3 2.2 6.7 2.2 11.4-1.4 11.5-4.3 14.8c-2.8 3.3-7.3 5-13.5 5zm10.1-6.9h5.4c3.4 0 5.8-1 7.2-3s2.1-5.3 2.1-9.7-.7-7.9-2.1-10c-1.4-2-3.9-3-7.5-3h-5.1v25.8z"/><path d="m288 164.4v-13.4h-.6c-1.6 0-2.7-.3-3.4-1s-1.3-1.9-1.7-3.7l-6.5-21.5h11.5l4.9 19.4h2.6l4.9-19.4h11.5l-6.6 21.5c-.4 1.8-1 3-1.7 3.7s-1.9 1-3.4 1h-.5v13.4h-10.9z"/><path d="m345 165.1c-5.2 0-9.1-1.8-11.9-5.3-2.7-3.5-4.1-8.6-4.1-15.2s1.5-12 4.4-15.3 7.5-5 13.8-5 7.8.6 10.2 1.8c2.5 1.2 4.3 3 5.4 5.4 1.2 2.4 1.9 5.5 2.1 9.3l-10.1 1.1c-.1-2-.5-3.8-1.1-5.3s-1.4-2.8-2.5-3.6c-1.1-.9-2.5-1.3-4.3-1.3s-2 .1-2.8.4c-.9.3-1.7.7-2.5 1.1-.8 1.3-1.5 2.8-1.9 4.6-.5 1.7-.7 3.9-.7 6.6s.3 4.9 1 7 1.7 3.7 3 4.9 2.9 1.8 4.8 1.8 2 0 2.9-.3c.9-.2 1.7-.5 2.4-.8.8-.4 1.5-1.1 2.1-2s1.1-1.5 1.3-2c0-.7-.1-1.4-.4-2.1-.2-.7-.6-1-1.2-1h-5.7v-3.7h16.9v5.6 5.8 6.9h-9.8l.2-7.7h-.6c-.5 2.6-1.7 4.7-3.6 6.1-1.9 1.5-4.3 2.2-7.4 2.2z"/><path d="m389.1 165.1c-4 0-7.1-.6-9.4-1.9s-3.9-3.1-4.9-5.6-1.5-5.7-1.5-9.5v-11.5c0-2.1 0-4.2 0-6.1s0-3.8-.1-5.6h10.1v3.3 4.5s0 3.3 0 5v4.6 3.5c0 2.4.2 4.5.6 6.3s1.1 3.2 2.1 4.3c1 1 2.5 1.5 4.3 1.5s2.1-.1 3.1-.4 1.8-.7 2.4-1.4c.3-1 .5-2 .7-2.8s.3-1.7.4-2.8c0-1.1.1-2.5.1-4.4v-4.9c0-1.9 0-3.9 0-6s0-4 0-5.9c0-1.8 0-3.3 0-4.5h10.1c0 2.3-.1 4.6-.1 6.9v7 11.7c0 3.7-.7 6.6-2.1 8.8-1.4 2.1-3.4 3.7-6.1 4.5-2.6.9-5.8 1.3-9.6 1.3z"/><path d="m424.3 164.4v-13.4h-.6c-1.6 0-2.7-.3-3.4-1s-1.3-1.9-1.7-3.7l-6.5-21.5h11.5l4.9 19.4h2.6l4.9-19.4h11.5l-6.6 21.5c-.4 1.8-1 3-1.7 3.7s-1.9 1-3.4 1h-.5v13.4h-10.9z"/><g fill="#cc1500"><path d="m59.9 184.7 4.2 5.7 4.2-5.6c.2-.2.3-.4.5-.5s.4-.2.7-.2.5 0 .8.3c.2.2.4.4.4.8 0 .3 0 .6-.3 1l-5 6.6v4.5c0 .4-.1.8-.4 1s-.6.4-.9.4-.7-.1-1-.4-.4-.6-.4-1v-4.5l-5.1-6.7c-.2-.3-.3-.6-.3-.9s.2-.5.4-.7c.3-.2.5-.3.8-.3.5 0 .9.2 1.2.6z"/><path d="m87.4 191.3c0 1.5-.3 2.8-.9 3.9s-1.5 2-2.6 2.6-2.4.9-3.9.9-2.8-.3-3.9-.9-2-1.5-2.6-2.6-.9-2.4-.9-3.9.3-2.8.9-3.9 1.5-2 2.6-2.6 2.4-.9 3.9-.9 2.8.3 3.9.9 2 1.5 2.6 2.6.9 2.4.9 3.9zm-7.3 5.1c.9 0 1.8-.2 2.5-.6s1.3-1 1.6-1.8c.4-.8.6-1.7.6-2.7s-.2-1.9-.6-2.7-.9-1.4-1.6-1.8-1.5-.6-2.5-.6-1.8.2-2.5.6-1.3 1-1.7 1.8-.6 1.7-.6 2.7.2 1.9.6 2.7 1 1.4 1.7 1.8 1.6.6 2.5.6z"/><path d="m101.9 185.3c0-.4.1-.7.4-.9s.6-.3.9-.3.7 0 .9.3c.3.2.4.5.4.9v6.9c0 1.3-.3 2.5-.9 3.5s-1.4 1.8-2.4 2.3c-1 .6-2.2.8-3.6.8s-2.6-.3-3.6-.8c-1-.6-1.8-1.3-2.4-2.3s-.9-2.1-.9-3.5v-6.9c0-.4.1-.7.4-.8.3-.2.6-.3.9-.3s.7 0 .9.3c.3.2.4.5.4.9v6.9c0 1.3.4 2.3 1.1 3.1.8.8 1.8 1.2 3 1.2s2.3-.4 3-1.2c.8-.8 1.2-1.8 1.2-3.1v-6.9z"/><path d="m120.5 196.3c.3.4.5.7.5 1.1 0 .3-.1.6-.4.8-.2.2-.5.3-.9.3-.3 0-.6-.1-.9-.4l-4-4.3h-3.4v3.6c0 .4-.1.7-.4.9s-.6.3-.9.3-.6 0-.9-.3c-.3-.2-.4-.5-.4-.9v-12.1c0-.4.1-.6.4-.9.3-.2.6-.3.9-.3h5.1c1.4 0 2.5.2 3.4.7.9.4 1.6 1 2 1.8.5.7.7 1.6.7 2.5s-.3 2-.9 2.8-1.4 1.4-2.6 1.7l2.7 2.9zm-9.1-4.8h3.8c1.2 0 2.1-.3 2.6-.8.6-.5.8-1.1.8-1.8 0-.8-.3-1.4-.9-1.9s-1.4-.8-2.5-.8h-3.8v5.2z"/><path d="m141.7 184.1c.3 0 .6 0 .9.3.3.2.4.5.4.9v12c0 .4-.1.7-.4.9s-.6.3-.9.3-.6 0-.9-.3c-.3-.2-.4-.5-.4-.9v-4.7h-6.8v4.7c0 .4-.1.7-.4.9s-.6.3-.9.3-.6-.1-.9-.3-.4-.5-.4-.9v-12c0-.4.1-.7.4-.9s.6-.3.9-.3.6 0 .9.3c.3.2.4.5.4.9v5.2h6.8v-5.2c0-.4.1-.7.4-.9s.6-.3.9-.3z"/><path d="m161.1 191.3c0 1.5-.3 2.8-.9 3.9s-1.5 2-2.6 2.6-2.4.9-3.9.9-2.8-.3-3.9-.9-2-1.5-2.6-2.6-.9-2.4-.9-3.9.3-2.8.9-3.9 1.5-2 2.6-2.6 2.4-.9 3.9-.9 2.8.3 3.9.9 2 1.5 2.6 2.6.9 2.4.9 3.9zm-7.4 5.1c.9 0 1.8-.2 2.5-.6s1.3-1 1.6-1.8c.4-.8.6-1.7.6-2.7s-.2-1.9-.6-2.7-.9-1.4-1.6-1.8-1.5-.6-2.5-.6-1.8.2-2.5.6-1.3 1-1.7 1.8-.6 1.7-.6 2.7.2 1.9.6 2.7 1 1.4 1.7 1.8 1.6.6 2.5.6z"/><path d="m175.6 185.3c0-.4.1-.7.4-.9s.6-.3.9-.3.7 0 .9.3c.3.2.4.5.4.9v6.9c0 1.3-.3 2.5-.9 3.5s-1.4 1.8-2.4 2.3c-1 .6-2.2.8-3.6.8s-2.6-.3-3.6-.8c-1-.6-1.8-1.3-2.4-2.3s-.9-2.1-.9-3.5v-6.9c0-.4.1-.7.4-.8.3-.2.6-.3.9-.3s.7 0 .9.3c.3.2.4.5.4.9v6.9c0 1.3.4 2.3 1.1 3.1.8.8 1.8 1.2 3 1.2s2.3-.4 3-1.2c.8-.8 1.2-1.8 1.2-3.1v-6.9z"/><path d="m181.3 195.1c-.1-.4 0-.8.3-1 .3-.3.7-.4 1.1-.4s.6 0 .8.2c.2.1.4.4.5.7.2.5.5.8.9 1.1.5.3 1 .5 1.5.6.6 0 1.1.1 1.6.1s.8 0 1.3 0 .9-.2 1.3-.3c.4-.2.8-.4 1.1-.7s.4-.7.4-1.1-.2-.8-.6-1.1c-.4-.2-.9-.4-1.5-.5-.6 0-1.3-.2-1.9-.2-.8 0-1.6-.1-2.3-.3-.8-.1-1.5-.3-2.1-.6s-1.2-.7-1.6-1.2-.6-1.2-.6-2.1.2-1.4.6-2 .9-1 1.5-1.4 1.3-.6 2.1-.8 1.5-.3 2.2-.3 1.6 0 2.5.3c.9.2 1.7.5 2.4 1s1.3 1.1 1.6 1.9c.1.4 0 .8-.3 1.1s-.6.4-1 .4-.5 0-.7-.2c-.2-.1-.4-.3-.5-.5-.2-.5-.5-.8-1-1-.4-.2-.9-.4-1.5-.5-.5 0-1.1-.1-1.5-.1s-.7 0-1.1.1c-.4 0-.8.2-1.2.3-.4.2-.7.4-1 .6-.3.3-.4.6-.4 1s.2.9.6 1.1.9.4 1.5.5c.6 0 1.3.2 2.1.2s1.6.2 2.3.3c.8 0 1.5.3 2.1.5.6.3 1.1.6 1.5 1.1s.6 1.2.6 2.1-.2 1.7-.6 2.3-1 1.1-1.7 1.4-1.4.6-2.2.7c-.8.2-1.5.2-2.2.2s-1.2 0-1.9-.2c-.7-.1-1.4-.3-2-.6-.7-.3-1.2-.7-1.7-1.1-.5-.5-.8-1.1-1-1.8z"/><path d="m208.2 196.2c.4 0 .7.1.9.4s.3.5.3.8-.1.5-.3.8c-.2.2-.5.3-.9.3h-9c-.5 0-.8-.1-1.1-.4s-.4-.6-.4-1v-11.8c0-.4.1-.7.4-.9.3-.3.6-.4 1.1-.4h9c.4 0 .7.1.9.3s.3.5.3.8-.1.5-.3.8c-.2.2-.5.4-.9.4h-7.9v4h7.5c.4 0 .7.1.9.4.2.2.3.5.3.8s0 .5-.3.8c-.2.2-.5.3-.9.3h-7.5v3.8h7.9z"/><path d="m213.5 187.5c-.1.3-.3.4-.5.5s-.4.2-.6.2c-.4 0-.7-.2-.9-.5-.3-.3-.3-.7-.2-1.1l.9-2c.1-.3.3-.4.5-.5s.4-.2.7-.2.5 0 .8.2.4.4.5.6c0 .3 0 .5-.1.9s-1 2-1 2z"/><path d="m215.3 195.1c-.1-.4 0-.8.3-1 .3-.3.7-.4 1.1-.4s.6 0 .8.2c.2.1.4.4.5.7.2.5.5.8.9 1.1.5.3 1 .5 1.5.6.6 0 1.1.1 1.6.1s.8 0 1.3 0 .9-.2 1.3-.3c.4-.2.8-.4 1.1-.7s.4-.7.4-1.1-.2-.8-.6-1.1c-.4-.2-.9-.4-1.5-.5-.6 0-1.3-.2-1.9-.2-.8 0-1.6-.1-2.3-.3-.8-.1-1.5-.3-2.1-.6s-1.2-.7-1.6-1.2-.6-1.2-.6-2.1.2-1.4.6-2 .9-1 1.5-1.4 1.3-.6 2.1-.8 1.5-.3 2.2-.3 1.6 0 2.5.3c.9.2 1.7.5 2.4 1s1.3 1.1 1.6 1.9c.1.4 0 .8-.3 1.1s-.6.4-1 .4-.5 0-.7-.2c-.2-.1-.4-.3-.5-.5-.2-.5-.5-.8-1-1-.4-.2-.9-.4-1.5-.5-.5 0-1.1-.1-1.5-.1s-.7 0-1.1.1c-.4 0-.8.2-1.2.3-.4.2-.7.4-1 .6-.3.3-.4.6-.4 1s.2.9.6 1.1.9.4 1.5.5c.6 0 1.3.2 2.1.2s1.6.2 2.3.3c.8 0 1.5.3 2.1.5.6.3 1.1.6 1.5 1.1s.6 1.2.6 2.1-.2 1.7-.6 2.3-1 1.1-1.7 1.4-1.4.6-2.2.7c-.8.2-1.5.2-2.2.2s-1.2 0-1.9-.2c-.7-.1-1.4-.3-2-.6-.7-.3-1.2-.7-1.7-1.1-.5-.5-.8-1.1-1-1.8z"/><path d="m244.9 184.1c.5 0 1.1 0 1.8.1.7 0 1.3.3 1.8.6.6.3 1 .7 1.4 1.2s.6 1.2.6 2.1-.1 1-.4 1.5c-.2.5-.6.9-1 1.1.8.3 1.4.8 1.8 1.4s.6 1.3.6 2.1-.2 1.6-.5 2.2c-.4.6-.8 1-1.4 1.4-.6.3-1.2.5-2 .7-.7.1-1.5.2-2.2.2h-5.5c-.4 0-.7-.1-.9-.4-.3-.2-.4-.5-.4-.9v-12c0-.3.1-.6.4-.9.3-.2.6-.4.9-.4h5.1zm0 2.2h-3.8v3.5h3.8c.8 0 1.5-.1 2-.4.6-.3.9-.7.9-1.4s-.2-.9-.5-1.1-.7-.4-1.2-.5c-.5 0-.9-.1-1.3-.1zm1.1 5.8h-4.9v4.2h4.3c.5 0 1.1 0 1.6-.1s1-.3 1.3-.6.5-.8.5-1.4-.3-1.2-.8-1.5-1.2-.5-2-.5z"/><path d="m265.1 196.2c.4 0 .7.1.9.4s.3.5.3.8-.1.5-.3.8c-.2.2-.5.3-.9.3h-9c-.5 0-.8-.1-1.1-.4s-.4-.6-.4-1v-11.8c0-.4.1-.7.4-.9.3-.3.6-.4 1.1-.4h9c.4 0 .7.1.9.3s.3.5.3.8-.1.5-.3.8c-.2.2-.5.4-.9.4h-7.9v4h7.5c.4 0 .7.1.9.4.2.2.3.5.3.8s0 .5-.3.8c-.2.2-.5.3-.9.3h-7.5v3.8h7.9z"/><path d="m268.6 195.1c-.1-.4 0-.8.3-1 .3-.3.7-.4 1.1-.4s.6 0 .8.2c.2.1.4.4.5.7.2.5.5.8.9 1.1.5.3 1 .5 1.5.6.6 0 1.1.1 1.6.1s.8 0 1.3 0 .9-.2 1.3-.3c.4-.2.8-.4 1.1-.7s.4-.7.4-1.1-.2-.8-.6-1.1c-.4-.2-.9-.4-1.5-.5-.6 0-1.3-.2-1.9-.2-.8 0-1.6-.1-2.3-.3-.8-.1-1.5-.3-2.1-.6s-1.2-.7-1.6-1.2-.6-1.2-.6-2.1.2-1.4.6-2 .9-1 1.5-1.4 1.3-.6 2.1-.8 1.5-.3 2.2-.3 1.6 0 2.5.3c.9.2 1.7.5 2.4 1s1.3 1.1 1.6 1.9c.1.4 0 .8-.3 1.1s-.6.4-1 .4-.5 0-.7-.2c-.2-.1-.4-.3-.5-.5-.2-.5-.5-.8-1-1-.4-.2-.9-.4-1.5-.5-.5 0-1.1-.1-1.5-.1s-.7 0-1.1.1c-.4 0-.8.2-1.2.3-.4.2-.7.4-1 .6-.3.3-.4.6-.4 1s.2.9.6 1.1.9.4 1.5.5c.6 0 1.3.2 2.1.2s1.6.2 2.3.3c.8 0 1.5.3 2.1.5.6.3 1.1.6 1.5 1.1s.6 1.2.6 2.1-.2 1.7-.6 2.3-1 1.1-1.7 1.4-1.4.6-2.2.7c-.8.2-1.5.2-2.2.2s-1.2 0-1.9-.2c-.7-.1-1.4-.3-2-.6-.7-.3-1.2-.7-1.7-1.1-.5-.5-.8-1.1-1-1.8z"/><path d="m295.4 184.1c.4 0 .8.1 1 .4.2.2.4.5.4.8s-.1.5-.4.8c-.2.2-.6.4-1 .4h-4.2v10.9c0 .4-.1.7-.4.9s-.6.3-.9.3-.6 0-.9-.3c-.3-.2-.4-.5-.4-.9v-10.9h-4.2c-.4 0-.8-.1-1-.4s-.3-.5-.3-.8.1-.6.3-.8c.2-.3.5-.4 1-.4z"/><path d="m308.3 186.2v4.5h7.3c.4 0 .7.1.9.4.2.2.3.5.3.8s0 .5-.3.8c-.2.2-.5.3-.9.3h-7.3v4.3c0 .4-.1.7-.4.9s-.6.3-.9.3-.6-.1-.9-.3-.4-.5-.4-.9v-11.9c0-.4.1-.7.4-.9.3-.3.7-.4 1-.4h8.8c.4 0 .7.1.9.4.2.2.3.5.3.8s-.1.5-.3.8c-.2.2-.5.3-.9.3h-7.7z"/><path d="m332.1 196.3c.3.4.5.7.5 1.1 0 .3-.1.6-.4.8-.2.2-.5.3-.9.3-.3 0-.6-.1-.9-.4l-4-4.3h-3.4v3.6c0 .4-.1.7-.4.9s-.6.3-.9.3-.6 0-.9-.3c-.3-.2-.4-.5-.4-.9v-12.1c0-.4.1-.6.4-.9.3-.2.6-.3.9-.3h5.1c1.4 0 2.5.2 3.4.7.9.4 1.6 1 2 1.8.5.7.7 1.6.7 2.5s-.3 2-.9 2.8-1.4 1.4-2.6 1.7l2.7 2.9zm-9.2-4.8h3.8c1.2 0 2.1-.3 2.6-.8.6-.5.8-1.1.8-1.8 0-.8-.3-1.4-.9-1.9s-1.4-.8-2.5-.8h-3.8v5.2z"/><path d="m335.5 185.3c0-.4.1-.7.4-.9s.6-.3.9-.3.6 0 .9.3c.3.2.4.5.4.9v12.1c0 .4-.1.7-.4.9s-.6.3-.9.3-.6 0-.9-.3c-.3-.2-.4-.5-.4-.9z"/><path d="m351.9 196.2c.4 0 .7.1.9.4s.3.5.3.8-.1.5-.3.8c-.2.2-.5.3-.9.3h-9c-.5 0-.8-.1-1.1-.4s-.4-.6-.4-1v-11.8c0-.4.1-.7.4-.9.3-.3.6-.4 1.1-.4h9c.4 0 .7.1.9.3s.3.5.3.8-.1.5-.3.8c-.2.2-.5.4-.9.4h-7.9v4h7.5c.4 0 .7.1.9.4.2.2.3.5.3.8s0 .5-.3.8c-.2.2-.5.3-.9.3h-7.5v3.8h7.9z"/><path d="m366.1 185.2c0-.4.1-.6.4-.8s.6-.3 1-.3.7 0 .9.3c.3.2.4.4.4.8v12c0 .4-.2.8-.5 1s-.7.3-1 .3-.5 0-.8-.2c-.2-.1-.4-.3-.6-.5l-6.9-8.9v1.3 7.1c0 .4-.1.7-.4.9s-.6.3-.9.3-.7 0-.9-.3c-.3-.2-.4-.5-.4-.9v-11.9c0-.4.1-.8.4-1s.6-.4 1-.4.5 0 .7.2c.2.1.4.3.6.5l7.1 9.2v-1.5c-.1 0-.1-7.3-.1-7.3z"/><path d="m378.1 184.1c1.4 0 2.6.3 3.6.9s1.8 1.4 2.4 2.5.9 2.3.9 3.8-.3 2.7-.9 3.8-1.4 1.9-2.4 2.5-2.2.9-3.6.9h-4.7c-.4 0-.8-.1-1.1-.4s-.4-.6-.4-.9v-11.8c0-.4.1-.7.4-.9.3-.3.6-.4 1.1-.4zm0 12.1c.8 0 1.6-.2 2.2-.6s1.1-1 1.5-1.7.5-1.6.5-2.6-.2-1.9-.5-2.6c-.4-.8-.9-1.3-1.5-1.8-.6-.4-1.4-.6-2.2-.6h-3.6v10h3.6z"/></g><path d="m401.4 190.5h40.8" fill="none" stroke="#3724ad" stroke-width="14"/><path d="m1.7 190.5h40.8" fill="none" stroke="#3724ad" stroke-width="14"/></svg>