<?xml version="1.0" encoding="UTF-8"?>
<svg xmlns="http://www.w3.org/2000/svg" xmlns:xlink="http://www.w3.org/1999/xlink" version="1.1" viewBox="0 0 447.5 197.5">
  <defs>
    <style>
      .cls-1, .cls-2 {
        fill: none;
      }

      .cls-3 {
        fill: #a2a2a3;
      }

      .cls-4 {
        clip-path: url(#clippath-1);
      }

      .cls-5 {
        fill: #c21d2e;
      }

      .cls-2 {
        stroke: #a2a2a3;
        stroke-miterlimit: 5.3;
        stroke-width: 14px;
      }

      .cls-6 {
        clip-path: url(#clippath);
      }
    </style>
    <clipPath id="clippath">
      <rect class="cls-1" x="22.3" y="0" width="400" height="112"/>
    </clipPath>
    <clipPath id="clippath-1">
      <rect class="cls-1" x="41.4" y="24.7" width="364" height="87.3"/>
    </clipPath>
  </defs>
  <!-- Generator: Adobe Illustrator 28.7.1, SVG Export Plug-In . SVG Version: 1.2.0 Build 142)  -->
  <g>
    <g id="Layer_1">
      <g class="cls-6">
        <path class="cls-5" d="M194.6,31.1l-17.6,16.1c-.6.6-1,1.3-1,2.2l-.2,4.2c0,.6-.3,1.2-.8,1.7l-6.4,5.8c-.2.2-.5.3-.8.3h-4.2c-.5-.1-1,0-1.3.5l-6.3,7.2c-.3.4-.3,1,0,1.3,0,0,0,0,0,0l12.4,10.8c.4.3.9.3,1.3,0l7.8-7.8c.4-.4.6-.9.5-1.5-.2-1.2.6-2.2.6-2.2,1.4-1.6,2.6-2.5,4.3-3.5,9.4-4.6,17.4,3.4,17.4,3.4l46.4,42.4h-72.8L105.7,32.4,34.9,112h-12.2l12.2-13.3v-36.2h15.1v19.1l53.7-59.9,91,9.2ZM422,112h-10.3l-58.2-62.4-61.5,62.4h-22.9c.7-1.3-62.6-53.1-60.8-66,2.4-16.5,25.5-18.2,25.5-18.2-13-6.4-31.5-2.1-31.5-2.1l19.7-18.4L277.3,0l38.4,44.4,38.1-5.7,68.3,73.3ZM308,45l-30.6-35.9-39.5,48.5-8.8.4,17.7,16.9,33.2-27.1,28-2.8Z"/>
      </g>
      <g class="cls-4">
        <path class="cls-3" d="M404.2,112h-5.6l-49-51.5,3.1-3.4,51.5,54.9ZM351.3,87.6h-10.6v10.6h10.6v-10.6ZM365.5,87.6h-10.6v10.6h10.6v-10.6ZM351.3,101.4h-10.6v10.6h10.6v-10.6ZM365.5,101.4h-10.6v10.6h10.6v-10.6ZM101.2,82.6h-12.8v12.7h12.8v-12.7ZM118.4,82.6h-12.8v12.7h12.8v-12.7ZM101.2,99.3h-12.8v12.7h12.8v-12.7ZM118.4,99.3h-12.8v12.7h12.8v-12.7ZM279.1,25.9h-5.9v5.9h5.9v-5.9ZM287.1,25.9h-5.9v5.9h5.9v-5.9ZM279.1,33.7h-5.9v5.9h5.9v-5.9ZM287.1,33.7h-5.9v5.9h5.9v-5.9ZM105.6,40.4l-63.6,71.6h5.3l61.3-68.2-3-3.3Z"/>
      </g>
      <path d="M0,164.4c.1-4.3.3-8.8.4-13.4.1-4.6.2-9.2.2-13.7s0-2.4,0-4c0-1.6,0-3.1,0-4.7,0-1.3,0-2.5,0-3.8h15.3l7.8,30h.8l7.7-30h15.3c0,2.1,0,4.2,0,6.2,0,2.1,0,4.1,0,6.2,0,4.5,0,9.1.1,13.7,0,4.6.2,9.1.4,13.4h-9.2v-8.3c0-3,0-6-.1-9,0-2.1,0-4.5,0-7,0-2.3,0-4.6,0-6.9h-.7l-8.6,31.2h-10.3l-8.6-31.2h-.7v13.9c-.1,3-.2,6-.2,9,0,2.9,0,5.7,0,8.3H0ZM65,164.4v-13.4h-.6c-1.6,0-2.7-.3-3.4-1-.7-.7-1.3-1.9-1.7-3.7l-6.5-21.5h11.5l4.9,19.4h2.6l4.9-19.4h11.5l-6.6,21.5c-.4,1.8-1,3-1.7,3.7-.7.7-1.9,1-3.4,1h-.5v13.4h-10.9ZM142.3,124.9c0,1.5,0,3.3-.1,5.5,0,2.3,0,4.6,0,6.9v14.7c0,2.5,0,4.8,0,7,0,2.2,0,4,.1,5.5h-10.2c0-1.8,0-3.7.1-5.8,0-2.1,0-4.2,0-6.2,0-2,0-3.8,0-5.4h-14.6c0,1.7,0,3.7,0,5.8,0,2.1,0,4.1,0,6.2,0,2,0,3.8,0,5.4h-10.3c0-3.3.1-6.6.2-10,0-3.4,0-6.6,0-9.7s0-6.3,0-9.7c0-3.4,0-6.7-.2-10.1h10.3c0,2.3,0,4.9,0,7.6,0,2.8,0,5.5,0,8.2h14.6c0-2.3,0-4.9,0-7.7,0-2.7,0-5.4-.1-8.1h10.2ZM186.3,164.4h-10.6c-.3-1.5-.6-2.9-1-4.4-.4-1.5-.7-2.9-1.1-4.4h-13.5c-.8,2.9-1.6,5.9-2.4,8.8h-10.4c.8-3.1,1.7-6.2,2.6-9.3l3-10.6c1-3.6,2-7.1,2.9-10.5.9-3.4,1.7-6.4,2.4-9.1h17.1c.7,2.7,1.5,5.7,2.4,9,.9,3.3,1.9,6.8,2.9,10.4,1,3.6,2,7.1,3,10.5,1,3.4,1.9,6.7,2.7,9.6h0ZM161.7,150h10.5c-.9-3.2-1.9-6.4-2.8-9.6-.9-3.2-1.7-6.5-2.4-9.8h-.4c-.8,3.3-1.6,6.5-2.5,9.9-.8,3.3-1.6,6.5-2.4,9.5ZM191.5,164.4c0-2,0-4.1,0-6.4,0-2.3,0-4.8,0-7.6,0-2.8,0-5.9,0-9.5s0-5.1,0-7.9c0-2.7,0-5.4-.1-8.1h13.8l11.3,23.4c.5,1.3,1,2.5,1.5,3.7.5,1.2.9,2.3,1.1,3.1h.7c-.1-1.1-.3-2.2-.4-3.3,0-1.2-.1-2.3-.1-3.4,0-1.8,0-3.8,0-6,0-2.2,0-4.3,0-6.5,0-2.2,0-4.2,0-6.1,0-1.9,0-3.5,0-4.9h9.4c-.1,6.5-.2,12.9-.2,19.3s0,13.1.2,20.2h-13.8l-10.5-20.7c-.7-1.8-1.4-3.6-2.1-5.5-.5-1.4-.9-2.8-1.4-4.2h-.7c0,.3,0,.8.1,1.5,0,.7.1,1.5.2,2.3,0,.8.1,1.6.1,2.3,0,.7,0,1.2,0,1.5,0,4.2,0,8.3,0,12,0,3.8,0,7.4,0,10.8h-9.3ZM237.1,164.4c0-2,.1-4.1.1-6.4,0-2.3,0-4.6,0-6.9,0-2.3,0-4.5,0-6.4s0-4.2,0-6.6c0-2.3,0-4.7,0-7,0-2.1,0-4.1-.1-6.2h15.2c4.5,0,8.2.7,11.1,2,2.9,1.3,5.1,3.4,6.6,6.3,1.5,2.9,2.2,6.7,2.2,11.4s-1.4,11.5-4.2,14.8c-2.8,3.3-7.3,5-13.5,5h-17.3ZM247.2,157.5h5.4c3.4,0,5.8-1,7.2-3,1.4-2,2.1-5.3,2.1-9.7s-.7-7.9-2.1-10c-1.4-2-3.9-3-7.5-3h-5.1v25.7ZM288,164.4v-13.4h-.6c-1.6,0-2.7-.3-3.4-1-.7-.7-1.3-1.9-1.7-3.7l-6.5-21.5h11.5l4.9,19.4h2.6l4.9-19.4h11.5l-6.6,21.5c-.4,1.8-1,3-1.7,3.7-.7.7-1.9,1-3.4,1h-.5v13.4h-10.9ZM345,165.1c-5.2,0-9.1-1.8-11.9-5.3-2.7-3.5-4.1-8.6-4.1-15.2s1.5-12,4.4-15.3c2.9-3.3,7.5-5,13.8-5s7.8.6,10.2,1.8c2.5,1.2,4.3,3,5.4,5.4,1.2,2.4,1.9,5.5,2.1,9.3l-10.1,1.1c-.1-2-.5-3.8-1.1-5.3-.6-1.5-1.4-2.7-2.5-3.6-1.1-.9-2.5-1.3-4.3-1.3s-2,.1-2.8.4c-.9.3-1.7.7-2.5,1.1-.8,1.3-1.5,2.8-1.9,4.6-.5,1.7-.7,3.9-.7,6.6s.3,4.9,1,7c.7,2.1,1.7,3.7,3,4.9,1.3,1.2,2.9,1.8,4.8,1.8s2,0,2.9-.3c.8-.2,1.6-.4,2.4-.8.8-.4,1.5-1.1,2.1-2,.6-.9,1.1-1.5,1.3-2,0-.7-.1-1.4-.4-2.1-.2-.7-.6-1-1.2-1h-5.7v-3.7h16.9v5.6c0,1.8,0,3.8,0,5.8,0,2,0,4.3,0,6.9h-9.8l.2-7.7h-.6c-.5,2.6-1.7,4.7-3.6,6.1-1.9,1.5-4.3,2.2-7.4,2.2h0ZM389.1,165.1c-4,0-7.1-.6-9.4-1.9-2.3-1.3-3.9-3.1-4.9-5.6-1-2.5-1.5-5.7-1.5-9.5v-11.5c0-2.1,0-4.2,0-6.1,0-1.9,0-3.7-.1-5.6h10.1c0,.8,0,1.9,0,3.2,0,1.5,0,3,0,4.5,0,1.7,0,3.3,0,5,0,1.5,0,3.1,0,4.6v3.5c0,2.4.2,4.5.6,6.3.4,1.8,1.1,3.2,2.1,4.3,1,1,2.5,1.5,4.3,1.5,1,0,2.1-.1,3.1-.4,1-.3,1.8-.7,2.4-1.4.3-1,.5-2,.7-2.7.2-.8.3-1.7.4-2.8,0-1.1.1-2.5.1-4.4v-4.9c0-1.9,0-3.9,0-6,0-2.1,0-4,0-5.9,0-1.5,0-3,0-4.5h10.1c0,2.3-.1,4.6-.1,6.9,0,2.3,0,4.7,0,7v11.7c0,3.7-.7,6.6-2.1,8.8-1.4,2.1-3.4,3.7-6.1,4.5-2.6.9-5.8,1.3-9.6,1.3h0ZM424.3,164.4v-13.4h-.6c-1.6,0-2.7-.3-3.4-1-.7-.7-1.3-1.9-1.7-3.7l-6.5-21.5h11.5l4.9,19.4h2.6l4.9-19.4h11.5l-6.6,21.5c-.4,1.8-1,3-1.7,3.7-.7.7-1.9,1-3.4,1h-.5v13.4h-10.9Z"/>
      <path class="cls-5" d="M87.9,184l3.4,4.7,3.5-4.6c.1-.2.3-.3.5-.4.2-.1.4-.2.6-.2.2,0,.4,0,.6.3.2.2.3.4.4.6,0,.2,0,.5-.2.8l-4.1,5.5v3.7c0,.3-.1.6-.4.8-.2.2-.5.3-.7.3-.3,0-.6-.1-.8-.3-.2-.2-.3-.5-.3-.8v-3.7l-4.2-5.5c-.2-.3-.2-.5-.2-.8,0-.2.2-.5.4-.6.2-.2.4-.3.7-.3.4,0,.8.2,1,.5h0ZM110.7,189.5c0,1.2-.3,2.3-.8,3.2-.5.9-1.2,1.7-2.1,2.1-.9.5-2,.8-3.2.8s-2.3-.3-3.2-.8c-.9-.5-1.6-1.2-2.1-2.1-.5-.9-.8-2-.8-3.2s.3-2.3.8-3.2c.5-.9,1.2-1.7,2.1-2.2.9-.5,2-.8,3.2-.8s2.3.3,3.2.8c.9.5,1.6,1.2,2.1,2.2.5.9.8,2,.8,3.2ZM104.6,193.7c.8,0,1.5-.2,2.1-.5.6-.4,1-.9,1.4-1.5.3-.6.5-1.4.5-2.2s-.2-1.6-.5-2.2c-.3-.6-.8-1.1-1.4-1.5-.6-.4-1.3-.5-2.1-.5s-1.5.2-2.1.5c-.6.3-1.1.8-1.4,1.5-.3.6-.5,1.4-.5,2.2s.2,1.6.5,2.2c.3.6.8,1.1,1.4,1.5.6.3,1.3.5,2.1.5ZM122.6,184.5c0-.3.1-.6.4-.7.2-.2.5-.3.8-.3.3,0,.5,0,.8.3.2.2.3.4.3.7v5.7c0,1.1-.2,2-.7,2.9-.5.8-1.2,1.5-2,1.9-.8.5-1.8.7-3,.7s-2.1-.2-3-.7c-.8-.4-1.5-1.1-2-1.9-.5-.8-.7-1.8-.7-2.9v-5.8c0-.3.1-.5.3-.7.5-.3,1.1-.3,1.5,0,.2.2.4.4.4.7v5.7c0,1,.3,1.9.9,2.5.6.6,1.4,1,2.5,1s1.9-.3,2.5-1c.6-.6,1-1.5,1-2.5v-5.7ZM138.1,193.6c.3.3.4.6.4.9,0,.3-.1.5-.3.7-.2.2-.4.3-.7.3-.3,0-.5-.1-.8-.4l-3.4-3.6h-2.8v3c0,.3-.1.6-.4.7-.2.2-.5.2-.7.2-.3,0-.5,0-.8-.2-.2-.2-.3-.4-.3-.7v-10c0-.3.1-.5.3-.7.2-.2.5-.3.8-.3h4.2c1.1,0,2.1.2,2.8.5.8.4,1.3.9,1.7,1.5.4.6.6,1.3.6,2s-.2,1.6-.7,2.3c-.5.7-1.2,1.1-2.1,1.4l2.3,2.4ZM130.5,189.7h3.1c1,0,1.7-.2,2.2-.6.5-.4.7-.9.7-1.5,0-.6-.3-1.2-.8-1.6-.5-.4-1.2-.6-2.1-.6h-3.1v4.3ZM155.6,183.5c.3,0,.5,0,.8.3.2.2.4.4.4.7v10c0,.3-.1.6-.4.8-.2.2-.5.2-.8.2-.3,0-.5,0-.7-.2-.2-.2-.3-.4-.3-.8v-3.9h-5.6v3.9c0,.4-.1.6-.3.8-.2.1-.5.2-.7.2-.3,0-.5,0-.8-.2-.2-.2-.4-.4-.4-.8v-10c0-.3.1-.6.3-.7.2-.2.5-.3.8-.3.3,0,.5,0,.7.3.2.2.4.4.4.7v4.3h5.6v-4.3c0-.3.1-.6.3-.7.2-.2.5-.3.7-.3h0ZM171.7,189.5c0,1.2-.3,2.3-.8,3.2-.5.9-1.2,1.7-2.1,2.1-.9.5-2,.8-3.2.8s-2.3-.3-3.2-.8c-.9-.5-1.6-1.2-2.1-2.1-.5-.9-.8-2-.8-3.2s.3-2.3.8-3.2c.5-.9,1.2-1.7,2.1-2.2.9-.5,2-.8,3.2-.8s2.3.3,3.2.8c.9.5,1.6,1.2,2.1,2.2.5.9.8,2,.8,3.2h0ZM165.6,193.7c.8,0,1.5-.2,2.1-.5.6-.4,1-.9,1.4-1.5.3-.6.5-1.4.5-2.2s-.2-1.6-.5-2.2c-.3-.6-.8-1.1-1.4-1.5-.6-.4-1.3-.5-2.1-.5s-1.5.2-2.1.5c-.6.3-1.1.8-1.4,1.5-.3.6-.5,1.4-.5,2.2s.2,1.6.5,2.2c.3.6.8,1.1,1.4,1.5.6.3,1.3.5,2.1.5h0ZM183.7,184.5c0-.3.1-.6.4-.7.2-.2.5-.3.8-.3.3,0,.5,0,.8.3.2.2.3.4.3.7v5.7c0,1.1-.2,2-.7,2.9-.5.8-1.2,1.5-2,1.9-.8.5-1.8.7-3,.7s-2.1-.2-3-.7c-.8-.4-1.5-1.1-2-1.9-.5-.8-.7-1.8-.7-2.9v-5.8c0-.3.1-.5.3-.7.5-.3,1.1-.3,1.5,0,.2.2.4.4.4.7v5.7c0,1,.3,1.9.9,2.5.6.6,1.4,1,2.5,1s1.9-.3,2.5-1c.6-.6,1-1.5,1-2.5v-5.7ZM188.4,192.6c0-.4,0-.6.3-.9.2-.2.6-.3.9-.3.2,0,.5,0,.7.2.2.1.3.3.4.5.1.4.4.7.8.9.4.2.8.4,1.3.5.8.1,1.6.1,2.4,0,.4,0,.8-.1,1.1-.3.4-.1.7-.3.9-.6.2-.3.3-.6.3-.9,0-.4-.2-.7-.5-.9-.3-.2-.8-.3-1.3-.4-.5,0-1.1-.1-1.6-.2-.6,0-1.3-.1-1.9-.2-.6,0-1.2-.2-1.8-.5-.5-.2-1-.6-1.3-1-.3-.4-.5-1-.5-1.7s.2-1.2.5-1.6c.3-.5.8-.9,1.3-1.1.5-.3,1.1-.5,1.7-.6.6-.1,1.2-.2,1.8-.2.7,0,1.3,0,2,.2.7.2,1.4.4,2,.8.6.4,1,.9,1.3,1.6,0,.3,0,.6-.2.9-.2.2-.5.4-.9.4-.2,0-.4,0-.6-.1-.2,0-.3-.2-.4-.4-.1-.4-.4-.7-.8-.9-.4-.2-.8-.3-1.3-.4-.4,0-.8-.1-1.2-.1-.3,0-.6,0-.9,0-.3,0-.7.1-1,.3-.3.1-.6.3-.8.5-.2.2-.3.5-.3.8,0,.4.2.7.5.9.3.2.7.3,1.3.4.5,0,1.1.1,1.7.2.7,0,1.3.1,1.9.2.6,0,1.2.2,1.8.4.5.2.9.5,1.2.9.3.4.5,1,.5,1.7s-.2,1.4-.5,1.9c-.4.5-.8.9-1.4,1.2-.6.3-1.2.5-1.8.6-.7.1-1.3.2-1.9.2s-1,0-1.6-.1c-.6,0-1.1-.3-1.7-.5-.5-.2-1-.5-1.4-.9-.4-.4-.7-.9-.9-1.5h0ZM210.6,193.6c.3,0,.6.1.8.3.2.2.3.4.3.7,0,.2,0,.5-.3.6-.2.2-.4.3-.8.3h-7.4c-.4,0-.7-.1-.9-.3-.2-.2-.3-.5-.3-.8v-9.7c0-.3.1-.6.3-.8.3-.2.6-.3.9-.3h7.4c.3,0,.6,0,.7.3.2.2.3.4.3.6,0,.2,0,.5-.3.6-.2.2-.4.3-.7.3h-6.5v3.3h6.2c.3,0,.6,0,.7.3.2.2.2.4.3.6,0,.2,0,.5-.3.6-.2.2-.4.3-.7.3h-6.2v3.1h6.5ZM215,186.4c-.2.4-.5.6-.9.6-.3,0-.6-.1-.7-.4-.2-.3-.3-.6-.1-.9l.7-1.7c0-.2.2-.3.4-.4.4-.2.8-.2,1.2,0,.2.1.3.3.4.5,0,.2,0,.4,0,.7h0s-.8,1.6-.8,1.6ZM216.5,192.6c0-.4,0-.6.3-.9.2-.2.6-.3.9-.3.2,0,.5,0,.7.2.2.1.3.3.4.5.1.4.4.7.8.9.4.2.8.4,1.3.5.8.1,1.6.1,2.4,0,.4,0,.8-.1,1.1-.3.4-.1.7-.3.9-.6.2-.3.3-.6.3-.9,0-.4-.2-.7-.5-.9-.3-.2-.8-.3-1.3-.4-.5,0-1.1-.1-1.6-.2-.6,0-1.3-.1-1.9-.2-.6,0-1.2-.2-1.7-.5-.5-.2-1-.6-1.3-1-.3-.4-.5-1-.5-1.7s.2-1.2.5-1.6c.3-.5.8-.9,1.3-1.1.5-.3,1.1-.5,1.7-.6.6-.1,1.2-.2,1.8-.2.7,0,1.3,0,2,.2.7.2,1.4.4,2,.8.6.4,1,.9,1.3,1.6,0,.3,0,.6-.2.9-.2.2-.5.4-.9.4-.2,0-.4,0-.6-.1-.2,0-.3-.2-.4-.4-.1-.4-.4-.7-.8-.9-.4-.2-.8-.3-1.2-.4-.4,0-.8-.1-1.3-.1-.2,0-.6,0-.9,0-.3,0-.7.1-1,.3-.3.1-.6.3-.8.5-.2.2-.3.5-.3.8,0,.4.2.7.5.9.3.2.7.3,1.2.4.5,0,1.1.1,1.7.2.7,0,1.3.1,1.9.2.6,0,1.2.2,1.7.4.5.2.9.5,1.3.9.3.4.5,1,.5,1.7s-.2,1.4-.5,1.9c-.4.5-.8.9-1.4,1.2-.6.3-1.2.5-1.8.6-.7.1-1.3.2-1.9.2s-1,0-1.6-.1c-.6,0-1.1-.3-1.7-.5-.5-.2-1-.5-1.4-.9-.4-.4-.7-.9-.9-1.5h0ZM241,183.5c.5,0,.9,0,1.5.1.5,0,1,.2,1.5.5.5.2.9.6,1.2,1,.3.4.5,1,.5,1.7s0,.8-.3,1.3c-.2.4-.5.7-.8.9.7.3,1.1.6,1.5,1.1.3.5.5,1.1.5,1.7s-.2,1.3-.5,1.8c-.3.5-.7.9-1.2,1.1-.5.3-1,.5-1.6.6-.6,0-1.2.1-1.8.1h-4.6c-.3,0-.6-.1-.8-.3-.2-.2-.3-.4-.3-.7v-10c0-.3.1-.5.3-.7.2-.2.5-.3.8-.3h4.2ZM241,185.4h-3.1v2.9h3.2c.6,0,1.2-.1,1.7-.3.5-.2.7-.6.7-1.1s-.1-.7-.4-.9c-.3-.2-.6-.4-1-.4-.3,0-.7-.1-1-.1h0ZM242,190.1h-4v3.5h3.5c.5,0,.9,0,1.3-.1.4,0,.8-.3,1.1-.5.3-.3.4-.6.4-1.1s-.2-1-.7-1.3c-.4-.3-1-.4-1.6-.4h0ZM257.8,193.6c.3,0,.6.1.8.3.2.2.3.4.3.7,0,.2,0,.5-.2.6-.2.2-.4.3-.8.3h-7.4c-.4,0-.7-.1-.9-.3-.2-.2-.3-.5-.3-.8v-9.7c0-.3.1-.6.3-.8.3-.2.6-.3.9-.3h7.4c.3,0,.6,0,.8.3.2.2.2.4.2.6,0,.2,0,.5-.2.6-.2.2-.4.3-.8.3h-6.5v3.3h6.2c.3,0,.6,0,.7.3.2.2.2.4.2.6,0,.2,0,.5-.2.6-.2.2-.4.3-.7.3h-6.2v3.1h6.5ZM260.7,192.6c0-.4,0-.6.3-.9.2-.2.6-.3.9-.3.2,0,.5,0,.7.2.2.1.3.3.4.5.1.4.4.7.8.9.4.2.8.4,1.3.5.8.1,1.6.1,2.4,0,.4,0,.8-.1,1.1-.3.4-.1.7-.3.9-.6.2-.3.3-.6.3-.9,0-.4-.2-.7-.5-.9-.3-.2-.8-.3-1.3-.4-.5,0-1.1-.1-1.6-.2-.6,0-1.3-.1-1.9-.2-.6,0-1.2-.2-1.7-.5-.5-.2-1-.6-1.3-1-.3-.4-.5-1-.5-1.7s.2-1.2.5-1.6c.3-.5.8-.9,1.3-1.1.5-.3,1.1-.5,1.7-.6.6-.1,1.2-.2,1.8-.2.7,0,1.3,0,2,.2.7.2,1.4.4,2,.8.6.4,1,.9,1.3,1.6,0,.3,0,.6-.2.9-.2.2-.5.4-.9.4-.2,0-.4,0-.6-.1-.2,0-.3-.2-.4-.4-.1-.4-.4-.7-.8-.9-.4-.2-.8-.3-1.3-.4-.4,0-.8-.1-1.2-.1-.3,0-.6,0-.9,0-.3,0-.7.1-1,.3-.3.1-.6.3-.8.5-.2.2-.3.5-.3.8,0,.4.2.7.5.9.3.2.7.3,1.3.4.5,0,1.1.1,1.7.2.7,0,1.3.1,1.9.2.6,0,1.2.2,1.7.4.5.2.9.5,1.3.9.3.4.5,1,.5,1.7s-.2,1.4-.5,1.9c-.4.5-.8.9-1.4,1.2-.6.3-1.2.5-1.8.6-.7.1-1.3.2-1.9.2s-1,0-1.6-.1c-.6,0-1.1-.3-1.7-.5-.5-.2-1-.5-1.4-.9-.4-.4-.7-.9-.9-1.5h0ZM282.9,183.5c.4,0,.6.1.8.3.2.2.3.4.3.7,0,.2,0,.5-.3.7-.2.2-.5.3-.8.3h-3.5v9c0,.3-.1.6-.4.8-.4.3-1,.3-1.5,0-.2-.2-.3-.4-.3-.8v-9h-3.5c-.4,0-.6,0-.8-.3-.2-.2-.3-.4-.3-.7,0-.2,0-.5.3-.7.2-.2.4-.3.8-.3h9.1ZM293.6,185.3v3.7h6c.3,0,.6,0,.7.3.2.2.2.4.2.6,0,.2,0,.4-.2.6-.2.2-.4.3-.7.3h-6v3.6c0,.3-.1.6-.4.8-.2.2-.5.2-.7.2-.3,0-.5,0-.8-.2-.2-.2-.3-.4-.3-.8v-9.9c0-.3.1-.5.4-.8.2-.2.6-.3.9-.3h7.3c.3,0,.6,0,.7.3.2.2.3.4.3.6,0,.2,0,.5-.3.6-.2.2-.4.3-.7.3h-6.3ZM313.3,193.6c.3.3.4.6.4.9,0,.3-.1.5-.3.7-.2.2-.4.3-.7.3-.3,0-.5-.1-.7-.4l-3.4-3.6h-2.8v3c0,.3-.1.6-.4.7-.2.2-.5.2-.7.2-.3,0-.5,0-.8-.2-.2-.2-.3-.4-.3-.7v-10c0-.3.1-.5.3-.7.2-.2.5-.3.8-.3h4.2c1.1,0,2.1.2,2.8.5.7.4,1.3.9,1.7,1.5.4.6.6,1.3.6,2s-.2,1.6-.7,2.3c-.5.7-1.2,1.1-2.1,1.4l2.3,2.4ZM305.7,189.7h3.1c1,0,1.7-.2,2.2-.6.5-.4.7-.9.7-1.5,0-.6-.3-1.2-.8-1.6-.5-.4-1.2-.6-2.1-.6h-3.1v4.3ZM316.1,184.5c0-.4.1-.6.3-.8.2-.2.5-.3.8-.3.3,0,.5,0,.7.3.2.2.4.4.4.8v10c0,.3-.1.6-.4.7-.2.2-.5.2-.7.2-.3,0-.5,0-.8-.2-.2-.2-.3-.4-.3-.7v-10ZM329.7,193.6c.3,0,.6.1.8.3.2.2.3.4.3.7,0,.2,0,.5-.2.6-.2.2-.4.3-.8.3h-7.4c-.4,0-.7-.1-.9-.3-.2-.2-.3-.5-.3-.8v-9.7c0-.3.1-.6.3-.8.3-.2.6-.3.9-.3h7.4c.3,0,.6,0,.8.3.2.2.2.4.2.6,0,.2,0,.5-.2.6-.2.2-.4.3-.8.3h-6.5v3.3h6.2c.3,0,.6,0,.7.3.2.2.2.4.3.6,0,.2,0,.5-.3.6-.2.2-.4.3-.7.3h-6.2v3.1h6.5ZM341.4,184.4c0-.3.1-.5.4-.7.5-.3,1.1-.3,1.6,0,.2.1.3.4.3.7v9.9c0,.4-.1.7-.4.9-.3.2-.6.3-.9.3s-.4,0-.6-.1c-.2,0-.4-.2-.5-.4l-5.7-7.4v1c0,0,0,5.9,0,5.9,0,.3-.1.6-.4.8-.2.2-.5.2-.8.2-.3,0-.6,0-.8-.2-.2-.2-.3-.4-.3-.8v-9.8c0-.4.1-.7.3-.9.2-.2.5-.3.8-.3.2,0,.4,0,.6.1.2,0,.3.2.5.4l5.9,7.7v-1.3c0,0,0-6,0-6ZM351.4,183.5c1.1,0,2.1.3,3,.8.8.5,1.5,1.2,2,2.1.5.9.7,1.9.7,3.1s-.2,2.2-.7,3.1c-.4.9-1.1,1.6-2,2.1-.8.5-1.8.7-3,.7h-3.9c-.3,0-.6-.1-.9-.3-.2-.2-.4-.5-.4-.8v-9.8c0-.3.1-.5.4-.8.2-.2.6-.3.9-.3h3.9ZM351.4,193.6c.7,0,1.3-.2,1.8-.5.5-.3,1-.8,1.3-1.4.3-.6.4-1.3.4-2.2s-.1-1.5-.4-2.2c-.3-.6-.7-1.1-1.3-1.5-.5-.3-1.2-.5-1.8-.5h-3v8.3h3Z"/>
      <path class="cls-2" d="M381,190.5h40.8M22.3,190.5h40.8"/>
    </g>
  </g>
</svg>