<svg xmlns="http://www.w3.org/2000/svg" xmlns:xlink="http://www.w3.org/1999/xlink" width="300" zoomAndPan="magnify" viewBox="0 0 224.87999 225" height="300" preserveAspectRatio="xMidYMid meet" version="1.0"><defs><clipPath id="923e8984e7"><path d="M 5 76 L 217 76 L 217 147 L 5 147 Z M 5 76 " clip-rule="nonzero"/></clipPath><clipPath id="b3349638d7"><path d="M 189.914062 183.4375 L 4.246094 83.960938 L 35.042969 26.476562 L 220.714844 125.953125 Z M 189.914062 183.4375 " clip-rule="nonzero"/></clipPath><clipPath id="723617fd31"><path d="M 189.914062 183.4375 L 4.246094 83.960938 L 35.042969 26.476562 L 220.714844 125.953125 Z M 189.914062 183.4375 " clip-rule="nonzero"/></clipPath></defs><g clip-path="url(#923e8984e7)"><g clip-path="url(#b3349638d7)"><g clip-path="url(#723617fd31)"><path fill="#f7d168" d="M 193.445312 132.441406 C 191.714844 130.523438 190.128906 128.695312 188.457031 126.941406 C 186.785156 125.183594 185.859375 123.019531 185.042969 120.8125 C 184.460938 119.242188 184.789062 117.765625 186.066406 116.617188 C 186.902344 115.855469 187.78125 115.085938 188.722656 114.464844 C 192.179688 112.214844 195.640625 112.730469 198.601562 115.539062 C 202.460938 119.199219 202.898438 121.714844 200.710938 127.683594 C 200.25 128.945312 199.460938 130.074219 198.71875 131.464844 C 199.558594 131.78125 200.375 132.203125 201.246094 132.421875 C 204.660156 133.308594 208.070312 133.828125 211.613281 132.980469 C 212.839844 132.695312 214.230469 132.945312 215.515625 133.105469 C 216.367188 133.214844 216.421875 133.605469 215.785156 134.207031 C 214.183594 135.746094 212.101562 136.730469 209.882812 136.984375 C 205.113281 137.550781 200.484375 137.238281 196.226562 134.691406 C 195.988281 134.550781 195.453125 134.59375 195.238281 134.777344 C 190.035156 139 184.109375 141.695312 177.769531 143.804688 C 170.539062 146.214844 162.890625 147.160156 155.28125 146.574219 C 148.664062 146.089844 141.902344 145.742188 135.5 143.898438 C 125.671875 141.0625 116.699219 136.421875 108.574219 130.132812 C 100.105469 123.59375 92.214844 116.40625 84.234375 109.320312 C 78.949219 104.621094 73.675781 99.859375 67.636719 96.164062 C 62.996094 93.3125 58.125 90.800781 53.234375 88.378906 C 49.34375 86.445312 45.34375 84.714844 41.265625 83.191406 C 36.375 81.363281 31.164062 81.019531 26.027344 80.484375 C 19.351562 79.769531 13.011719 80.886719 7.089844 84.128906 C 6.460938 84.472656 5.808594 84.796875 5.257812 84.125 C 4.710938 83.449219 5.160156 82.796875 5.605469 82.308594 C 6.898438 80.820312 8.574219 79.699219 10.449219 79.066406 C 15.714844 77.324219 21.0625 76.234375 26.660156 76.871094 C 32.121094 77.480469 37.628906 77.816406 42.851562 79.707031 C 46.226562 80.9375 49.578125 82.304688 52.84375 83.835938 C 57.644531 86.109375 62.445312 88.417969 67.085938 91.019531 C 73.941406 94.859375 79.828125 100.046875 85.734375 105.164062 C 92.34375 110.855469 98.769531 116.792969 105.445312 122.421875 C 110.925781 127.042969 116.597656 131.457031 123.09375 134.671875 C 127.675781 136.925781 132.21875 139.527344 137.226562 140.457031 C 147.515625 142.363281 157.859375 144.632812 168.425781 143 C 176.789062 141.710938 184.746094 139.144531 191.636719 133.96875 C 192.261719 133.511719 192.820312 132.964844 193.445312 132.441406 Z M 196.175781 129.390625 C 197.777344 127.601562 198.367188 125.570312 198.761719 123.449219 C 199.257812 120.671875 197.8125 118.03125 195.128906 116.742188 C 192.800781 115.625 190.78125 116.179688 188.71875 118.515625 C 188.695312 118.535156 188.648438 118.558594 188.644531 118.59375 C 188.589844 119.039062 188.339844 119.570312 188.492188 119.929688 C 190.089844 123.796875 192.992188 126.625 196.175781 129.390625 Z M 196.175781 129.390625 " fill-opacity="1" fill-rule="nonzero"/></g></g></g></svg>